<svg width="24" height="24" viewBox="0 0 24 24" fill="none" xmlns="http://www.w3.org/2000/svg">
<path d="M23.495 3.20498C23.356 2.70674 23.0907 2.2528 22.725 1.88703C22.3592 1.52126 21.9052 1.25603 21.407 1.11698C19.537 0.615981 12.011 0.615981 12.011 0.615981C12.011 0.615981 4.50401 0.605981 2.61501 1.11698C2.11677 1.25603 1.66283 1.52126 1.29706 1.88703C0.931287 2.2528 0.666058 2.70674 0.527007 3.20498C0.172528 5.11949 -0.0022322 7.06294 0.00500725 9.00998C-0.000863617 10.9497 0.173891 12.8857 0.527007 14.793C0.666058 15.2912 0.931287 15.7452 1.29706 16.1109C1.66283 16.4767 2.11677 16.7419 2.61501 16.881C4.48301 17.383 12.011 17.383 12.011 17.383C12.011 17.383 19.517 17.383 21.407 16.881C21.9052 16.7419 22.3592 16.4767 22.725 16.1109C23.0907 15.7452 23.356 15.2912 23.495 14.793C23.8407 12.885 24.0081 10.949 23.995 9.00998C24.0095 7.06363 23.8421 5.12018 23.495 3.20498ZM9.60901 12.601V5.40798L15.873 9.00998L9.60901 12.601Z" fill="white"/>
</svg>
